
<svg version="1.1" id="Capa_1" xmlns="http://www.w3.org/2000/svg" xmlns:xlink="http://www.w3.org/1999/xlink" x="0px" y="0px"
	 viewBox="0 0 63 63" fill="currentColor" xml:space="preserve">
<g>
	<g id="group-30svg">
		<path id="path-1_22_" d="M29.435,40.364l13.357-17.416l-9.07,19.991c-0.574,1.265-2.066,1.826-3.331,1.251
			c-1.266-0.575-1.825-2.068-1.251-3.334C29.219,40.681,29.323,40.51,29.435,40.364z"/>
		<path id="path-2_22_" d="M57.643,55.088H5.359c-0.522,0-1.006-0.271-1.28-0.716C1.449,50.076,0,44.672,0,39.15
			C0,21.926,14.131,7.913,31.501,7.913C48.869,7.913,63,21.968,63,39.244c0,5.54-1.41,10.771-4.078,15.127
			C58.649,54.817,58.164,55.088,57.643,55.088z M6.217,52.086h50.568C58.891,48.349,60,43.928,60,39.244
			c0-15.621-12.784-28.33-28.499-28.33C15.785,10.915,3,23.58,3,39.15C3,43.819,4.138,48.378,6.217,52.086z"/>
		<path id="path-3_22_" d="M31.569,17.562c-0.828,0-1.5-0.672-1.5-1.501v-6.005c0-0.829,0.672-1.501,1.5-1.501
			c0.829,0,1.5,0.672,1.5,1.501v6.005C33.069,16.889,32.398,17.562,31.569,17.562z"/>
		<path id="path-4_21_" d="M8.643,38.076h-7c-0.828,0-1.5-0.672-1.5-1.501s0.672-1.501,1.5-1.501h7c0.828,0,1.5,0.672,1.5,1.501
			S9.471,38.076,8.643,38.076z"/>
		<path id="path-5_20_" d="M60.643,38.076h-7c-0.828,0-1.5-0.672-1.5-1.501s0.672-1.501,1.5-1.501h7c0.828,0,1.5,0.672,1.5,1.501
			S61.471,38.076,60.643,38.076z"/>
	</g>
</g>
</svg>
